<?xml version="1.0" encoding="UTF-8" standalone="no"?>
<!DOCTYPE svg PUBLIC "-//W3C//DTD SVG 1.1//EN" "http://www.w3.org/Graphics/SVG/1.1/DTD/svg11.dtd">
<svg width="100%" height="100%" viewBox="0 0 250 250" version="1.1" xmlns="http://www.w3.org/2000/svg" xmlns:xlink="http://www.w3.org/1999/xlink" xml:space="preserve" xmlns:serif="http://www.serif.com/" style="fill-rule:evenodd;clip-rule:evenodd;stroke-linecap:round;stroke-linejoin:round;stroke-miterlimit:1.5;">
    <path d="M128.662,92.733L128.662,68.164C128.662,68.164 127.916,60.518 137.621,60.868" style="fill:none;stroke:rgb(0,134,3);stroke-width:3.75px;"/>
    <path d="M97.155,126.474L97.155,107.421C97.155,99.315 103.736,92.733 111.843,92.733L145.482,92.733C153.589,92.733 160.17,99.315 160.17,107.421L160.17,126.541C203.549,130.86 235.061,143.759 235.061,158.984C235.061,177.74 187.233,192.967 128.323,192.967C69.413,192.967 21.586,177.74 21.586,158.984C21.586,143.679 53.432,130.723 97.155,126.474Z" style="fill:rgb(0,255,3);stroke:rgb(27,27,27);stroke-width:3.96px;"/>
    <g transform="matrix(1,0,0,1,-22.6849,8.25272)">
        <ellipse cx="94.397" cy="150.731" rx="11.796" ry="8.253" style="fill:rgb(0,77,255);stroke:rgb(0,134,3);stroke-width:3.75px;"/>
    </g>
    <g transform="matrix(1,0,0,1,18.4092,9.00591)">
        <ellipse cx="94.397" cy="150.731" rx="11.796" ry="8.253" style="fill:rgb(0,77,255);stroke:rgb(0,134,3);stroke-width:3.75px;"/>
    </g>
    <g transform="matrix(1,0,0,1,56.0622,8.25272)">
        <ellipse cx="94.397" cy="150.731" rx="11.796" ry="8.253" style="fill:rgb(0,77,255);stroke:rgb(0,134,3);stroke-width:3.75px;"/>
    </g>
    <g transform="matrix(1,0,0,1,98.1005,8.25272)">
        <ellipse cx="94.397" cy="150.731" rx="11.796" ry="8.253" style="fill:rgb(0,77,255);stroke:rgb(0,134,3);stroke-width:3.75px;"/>
    </g>
</svg>
