<?xml version="1.0" encoding="UTF-8" standalone="no"?>
<!DOCTYPE svg PUBLIC "-//W3C//DTD SVG 1.1//EN" "http://www.w3.org/Graphics/SVG/1.1/DTD/svg11.dtd">
<svg width="100%" height="100%" viewBox="0 0 250 250" version="1.1" xmlns="http://www.w3.org/2000/svg" xmlns:xlink="http://www.w3.org/1999/xlink" xml:space="preserve" xmlns:serif="http://www.serif.com/" style="fill-rule:evenodd;clip-rule:evenodd;stroke-linecap:round;stroke-linejoin:round;stroke-miterlimit:1.5;">
    <g transform="matrix(0.885479,0,0,1.34731,14.1861,-59.931)">
        <path d="M110.654,172.558L106.409,185.115L140.908,185.074L136.957,172.558L110.654,172.558Z"/>
    </g>
    <g transform="matrix(0.916612,0.399778,-0.399778,0.916612,20.4797,-70.781)">
        <path d="M203.952,93.409L216.945,98.9L222.328,112.157L216.945,125.413L203.952,130.904L190.958,125.413L185.576,112.157L190.958,98.9L203.952,93.409Z" style="fill:rgb(63,63,63);"/>
    </g>
    <g transform="matrix(0.916612,0.399778,-0.399778,0.916612,-53.0853,-70.781)">
        <path d="M203.952,93.409L216.945,98.9L222.328,112.157L216.945,125.413L203.952,130.904L190.958,125.413L185.576,112.157L190.958,98.9L203.952,93.409Z" style="fill:rgb(63,63,63);"/>
    </g>
    <path d="M82.353,51.948L98.253,65.3" style="fill:none;stroke:black;stroke-width:2.5px;"/>
    <path d="M124.114,45.183L124.114,58.624" style="fill:none;stroke:black;stroke-width:3.13px;"/>
    <path d="M82.872,91.219L81.686,87.961L84.913,87.997L84.086,91.219" style="fill:none;"/>
    <path d="M123.566,137.185L123.564,200.627" style="fill:none;stroke:rgb(255,197,0);stroke-width:3.33px;"/>
    <path d="M106.757,172.558L99.305,176.069L122.774,181.551" style="fill:none;stroke:rgb(255,197,0);stroke-width:1.04px;"/>
    <g transform="matrix(-1,0,0,1,247.549,0)">
        <path d="M106.757,172.558L99.305,176.069L122.774,181.551" style="fill:none;stroke:rgb(255,197,0);stroke-width:1.04px;"/>
    </g>
    <path d="M90.74,70.148L104.694,58.031L143.581,57.853L156.809,69.981L165.762,98.606L165.762,130.904L82.872,130.904L82.872,93.409L90.74,70.148Z" style="fill:rgb(111,111,111);"/>
    <path d="M100.043,80.536L114.509,72.221L111.059,89.794L100.043,80.536Z" style="fill:none;"/>
    <path d="M135.998,89.794L147.643,81.008L134.064,72.221L135.998,89.794Z" style="fill:none;"/>
    <g transform="matrix(1.04884,0,0,1,-8.83118,-0.911789)">
        <rect x="76.888" y="131.816" width="97.178" height="41.654" style="fill:rgb(245,185,16);"/>
    </g>
    <g>
        <path d="M73.812,132.19L58.136,135.331L30.813,200.208L38.638,181.628L72.474,172.558L60.234,134.911" style="fill:none;stroke:rgb(255,197,0);stroke-width:1.87px;"/>
        <path d="M20.024,200.208L43.609,200.208C43.609,200.208 38.253,205.376 30.813,205.222C23.373,205.069 20.024,200.208 20.024,200.208Z" style="fill:rgb(255,197,0);stroke:rgb(255,197,0);stroke-width:1.87px;"/>
        <g transform="matrix(1,0,0,1,91.7476,0.41965)">
            <path d="M20.024,200.208L43.609,200.208C43.609,200.208 38.253,205.376 30.813,205.222C23.373,205.069 20.024,200.208 20.024,200.208Z" style="fill:rgb(255,197,0);stroke:rgb(255,197,0);stroke-width:1.87px;"/>
        </g>
        <path d="M59.988,175.711L73.812,156.713" style="fill:none;stroke:rgb(255,197,0);stroke-width:1.87px;"/>
    </g>
    <g transform="matrix(-1,0,0,1,247.549,0)">
        <path d="M73.812,132.19L58.136,135.331L30.813,200.208L38.638,181.628L72.474,172.558L60.234,134.911" style="fill:none;stroke:rgb(255,197,0);stroke-width:1.87px;"/>
        <path d="M20.024,200.208L43.609,200.208C43.609,200.208 38.253,205.376 30.813,205.222C23.373,205.069 20.024,200.208 20.024,200.208Z" style="fill:rgb(255,197,0);stroke:rgb(255,197,0);stroke-width:1.87px;"/>
        <path d="M59.988,175.711L73.812,156.713" style="fill:none;stroke:rgb(255,197,0);stroke-width:1.87px;"/>
    </g>
    <g transform="matrix(1.04168,0,0,1.04222,-7.44988,-7.86392)">
        <ellipse cx="125.973" cy="97.171" rx="31.713" ry="31.271" style="fill:rgb(152,152,152);fill-opacity:0.54;stroke:black;stroke-width:0.6px;"/>
    </g>
    <path d="M116.722,61.564L108.468,122.293C108.468,122.293 116.339,126.223 123.774,126C131.21,125.777 138.665,122.073 138.665,122.073L130.928,61.859C130.928,61.859 126.569,60.743 123.774,60.818C120.98,60.893 116.722,61.564 116.722,61.564Z" style="fill:none;stroke:black;stroke-width:0.63px;"/>
    <path d="M134.064,99.776C134.064,98.777 133.253,97.966 132.254,97.966L115.744,97.966C114.745,97.966 113.933,98.777 113.933,99.776L113.933,116.302C113.933,117.302 114.745,118.113 115.744,118.113L132.254,118.113C133.253,118.113 134.064,117.302 134.064,116.302L134.064,99.776Z" style="fill:rgb(90,90,90);stroke:black;stroke-width:0.63px;"/>
    <path d="M98.253,80.399L111.36,91.029L113.002,72.913L98.253,80.399Z" style="fill:rgb(96,96,96);stroke:black;stroke-width:0.63px;"/>
    <g transform="matrix(-1,0,0,1,247.066,0)">
        <path d="M98.253,80.399L111.36,91.029L113.002,72.913L98.253,80.399Z" style="fill:rgb(96,96,96);stroke:black;stroke-width:0.63px;"/>
    </g>
    <path d="M121.769,140.327L109.104,171.427L122.003,173.301L99.305,176.069L108.345,157.822" style="fill:none;stroke:rgb(255,197,0);stroke-width:1.04px;"/>
    <g transform="matrix(-1,0,0,1,247.611,0)">
        <path d="M121.769,140.327L109.104,171.427L122.003,173.301L99.305,176.069L108.345,157.822" style="fill:none;stroke:rgb(255,197,0);stroke-width:1.04px;"/>
    </g>
    <g>
        <g transform="matrix(1.01174,0,0,1.08895,-1.70557,-12.4117)">
            <rect x="117.521" y="140.263" width="12.591" height="4.771" style="fill:none;stroke:rgb(152,120,9);stroke-width:0.99px;"/>
        </g>
        <g transform="matrix(1.01174,0,0,1.08895,-1.70557,-1.88755)">
            <rect x="117.521" y="140.263" width="12.591" height="4.771" style="fill:none;stroke:rgb(152,120,9);stroke-width:0.99px;"/>
        </g>
        <g transform="matrix(1.01174,0,0,1.08895,-1.70557,8.71131)">
            <rect x="117.521" y="140.263" width="12.591" height="4.771" style="fill:none;stroke:rgb(152,120,9);stroke-width:0.99px;"/>
        </g>
        <g transform="matrix(1.01174,0,0,1.08895,-1.70557,18.9602)">
            <rect x="117.521" y="140.263" width="12.591" height="4.771" style="fill:none;stroke:rgb(152,120,9);stroke-width:0.99px;"/>
        </g>
        <g transform="matrix(1.01174,0,0,1.08895,-1.70557,29.5796)">
            <rect x="117.521" y="140.263" width="12.591" height="4.771" style="fill:none;stroke:rgb(152,120,9);stroke-width:0.99px;"/>
        </g>
        <path d="M117.195,137.021L117.195,189.659" style="fill:none;stroke:rgb(152,120,9);stroke-width:1.04px;"/>
        <path d="M129.934,137.021L129.934,189.659" style="fill:none;stroke:rgb(152,120,9);stroke-width:1.04px;"/>
    </g>
    <ellipse cx="124.114" cy="45.183" rx="11.113" ry="10.628" style="fill:rgb(133,133,133);"/>
    <g transform="matrix(1,0,0,1,-41.7613,6.76511)">
        <ellipse cx="124.114" cy="45.183" rx="11.113" ry="10.628" style="fill:rgb(133,133,133);"/>
    </g>
    <g transform="matrix(-1,0,0,1,248.509,1.28458)">
        <g transform="matrix(1,0,0,1,-0.486204,0)">
            <path d="M82.872,98.637L81.686,102.315L84.913,102.296L83.806,98.637" style="fill:rgb(5,5,5);"/>
        </g>
        <g transform="matrix(1,0,0,-1,-0.427857,189.857)">
            <path d="M82.872,98.637L81.686,102.315L84.913,102.296L83.806,98.637" style="fill:rgb(5,5,5);"/>
        </g>
        <g transform="matrix(6.12323e-17,-1,-1,-6.12323e-17,178.458,178.228)">
            <path d="M82.872,98.637L81.686,102.315L84.913,102.296L83.806,98.637" style="fill:rgb(5,5,5);"/>
        </g>
        <rect x="79.821" y="91.219" width="6.102" height="7.418" style="fill:rgb(146,141,126);"/>
        <g transform="matrix(1,0,0,1,-0.427857,0)">
            <circle cx="83.3" cy="94.928" r="1.613" style="fill:rgb(5,5,5);"/>
        </g>
    </g>
    <path d="M81.033,104.808L71.812,130.443C71.812,130.443 74.938,131.716 76.825,131.927C78.477,132.112 82.312,131.258 82.312,131.258L84.005,104.803L81.033,104.808Z"/>
    <g transform="matrix(-1,0,0,1,248.214,0)">
        <path d="M81.033,104.808L75.476,130.904C75.476,130.904 76.159,131.904 78.72,131.926C81.281,131.949 82.312,131.258 82.312,131.258L84.005,104.803L81.033,104.808Z"/>
    </g>
    <g>
        <g transform="matrix(1,0,0,1,-0.486204,0)">
            <path d="M82.872,98.637L81.686,102.315L84.913,102.296L83.806,98.637" style="fill:rgb(5,5,5);"/>
        </g>
        <g transform="matrix(1,0,0,-1,-0.427857,189.857)">
            <path d="M82.872,98.637L81.686,102.315L84.913,102.296L83.806,98.637" style="fill:rgb(5,5,5);"/>
        </g>
        <g transform="matrix(6.12323e-17,-1,-1,-6.12323e-17,178.458,178.228)">
            <path d="M82.872,98.637L81.686,102.315L84.913,102.296L83.806,98.637" style="fill:rgb(5,5,5);"/>
        </g>
        <rect x="79.821" y="91.219" width="6.102" height="7.418" style="fill:rgb(146,141,126);"/>
        <g transform="matrix(1,0,0,1,-0.427857,0)">
            <circle cx="83.3" cy="94.928" r="1.613" style="fill:rgb(5,5,5);"/>
        </g>
    </g>
    <g transform="matrix(1,0,0,1,-1.23927,0)">
        <path d="M110.654,127.714L110.654,137.185L138.957,137.185L138.957,127.842L110.654,127.714Z" style="fill:rgb(83,83,83);"/>
    </g>
</svg>
